<?xml version="1.0" encoding="UTF-8"?>
<!DOCTYPE svg PUBLIC "-//W3C//DTD SVG 1.1//EN" "http://www.w3.org/Graphics/SVG/1.1/DTD/svg11.dtd">
<!-- Creator: CorelDRAW X7 -->
<svg xmlns="http://www.w3.org/2000/svg" xml:space="preserve" width="1250px" height="800px" version="1.1" style="shape-rendering:geometricPrecision; text-rendering:geometricPrecision; image-rendering:optimizeQuality; fill-rule:evenodd; clip-rule:evenodd"
viewBox="0 0 1250 800"
 xmlns:xlink="http://www.w3.org/1999/xlink">
 <defs>
  <style type="text/css">
   <![CDATA[
    .fil19 {fill:#005E91;fill-rule:nonzero}
    .fil15 {fill:#0FC580;fill-rule:nonzero}
    .fil23 {fill:#173E99;fill-rule:nonzero}
    .fil6 {fill:#1AAC7A;fill-rule:nonzero}
    .fil18 {fill:#522A4C;fill-rule:nonzero}
    .fil48 {fill:#62D9EF;fill-rule:nonzero}
    .fil50 {fill:#77DEF1;fill-rule:nonzero}
    .fil22 {fill:#E98D74;fill-rule:nonzero}
    .fil11 {fill:#F6AA4C;fill-rule:nonzero}
    .fil20 {fill:#F7A080;fill-rule:nonzero}
    .fil42 {fill:#FF7DB7;fill-rule:nonzero}
    .fil39 {fill:#FFA066;fill-rule:nonzero}
    .fil24 {fill:#FFB129;fill-rule:nonzero}
    .fil5 {fill:url(#id44);fill-rule:nonzero}
    .fil13 {fill:url(#id45);fill-rule:nonzero}
    .fil29 {fill:url(#id46);fill-rule:nonzero}
    .fil0 {fill:url(#id47);fill-rule:nonzero}
    .fil33 {fill:url(#id48);fill-rule:nonzero}
    .fil26 {fill:url(#id49);fill-rule:nonzero}
    .fil51 {fill:url(#id50);fill-rule:nonzero}
    .fil12 {fill:url(#id51);fill-rule:nonzero}
    .fil10 {fill:url(#id52);fill-rule:nonzero}
    .fil54 {fill:url(#id53);fill-rule:nonzero}
    .fil30 {fill:url(#id54);fill-rule:nonzero}
    .fil37 {fill:url(#id55);fill-rule:nonzero}
    .fil14 {fill:url(#id56);fill-rule:nonzero}
    .fil40 {fill:url(#id57);fill-rule:nonzero}
    .fil21 {fill:url(#id58);fill-rule:nonzero}
    .fil49 {fill:url(#id59);fill-rule:nonzero}
    .fil31 {fill:url(#id60);fill-rule:nonzero}
    .fil4 {fill:url(#id61);fill-rule:nonzero}
    .fil53 {fill:url(#id62);fill-rule:nonzero}
    .fil38 {fill:url(#id63);fill-rule:nonzero}
    .fil2 {fill:url(#id64);fill-rule:nonzero}
    .fil44 {fill:url(#id65);fill-rule:nonzero}
    .fil7 {fill:url(#id66);fill-rule:nonzero}
    .fil8 {fill:url(#id67);fill-rule:nonzero}
    .fil3 {fill:url(#id68);fill-rule:nonzero}
    .fil16 {fill:url(#id69);fill-rule:nonzero}
    .fil32 {fill:url(#id70);fill-rule:nonzero}
    .fil56 {fill:url(#id71);fill-rule:nonzero}
    .fil34 {fill:url(#id72);fill-rule:nonzero}
    .fil9 {fill:url(#id73);fill-rule:nonzero}
    .fil55 {fill:url(#id74);fill-rule:nonzero}
    .fil28 {fill:url(#id75);fill-rule:nonzero}
    .fil43 {fill:url(#id76);fill-rule:nonzero}
    .fil25 {fill:url(#id77);fill-rule:nonzero}
    .fil35 {fill:url(#id78);fill-rule:nonzero}
    .fil36 {fill:url(#id79);fill-rule:nonzero}
    .fil52 {fill:url(#id80);fill-rule:nonzero}
    .fil41 {fill:url(#id81);fill-rule:nonzero}
    .fil17 {fill:url(#id82);fill-rule:nonzero}
    .fil1 {fill:url(#id83);fill-rule:nonzero}
    .fil45 {fill:url(#id84);fill-rule:nonzero}
    .fil27 {fill:url(#id85);fill-rule:nonzero}
    .fil47 {fill:url(#id86);fill-rule:nonzero}
    .fil46 {fill:url(#id87);fill-rule:nonzero}
   ]]>
  </style>
    <mask id="id0">
  <linearGradient id="id1" gradientUnits="userSpaceOnUse" x1="550.751" y1="596.455" x2="620.084" y2="753.719">
   <stop offset="0" style="stop-opacity:0; stop-color:white"/>
   <stop offset="1" style="stop-opacity:0.619608; stop-color:white"/>
  </linearGradient>
     <rect style="fill:url(#id1)" x="501" y="555" width="169" height="240"/>
    </mask>
    <mask id="id2">
  <linearGradient id="id3" gradientUnits="userSpaceOnUse" x1="471.217" y1="650.344" x2="558.977" y2="753.57">
   <stop offset="0" style="stop-opacity:0; stop-color:white"/>
   <stop offset="1" style="stop-opacity:0.619608; stop-color:white"/>
  </linearGradient>
     <rect style="fill:url(#id3)" x="435" y="638" width="160" height="127"/>
    </mask>
    <mask id="id4">
  <linearGradient id="id5" gradientUnits="userSpaceOnUse" x1="1208.64" y1="582.305" x2="1117.43" y2="722.573">
   <stop offset="0" style="stop-opacity:0; stop-color:white"/>
   <stop offset="1" style="stop-opacity:0.619608; stop-color:white"/>
  </linearGradient>
     <rect style="fill:url(#id5)" x="1086" y="495" width="154" height="316"/>
    </mask>
    <mask id="id6">
  <linearGradient id="id7" gradientUnits="userSpaceOnUse" x1="1267.04" y1="649.371" x2="1201.75" y2="707.854">
   <stop offset="0" style="stop-opacity:0; stop-color:white"/>
   <stop offset="1" style="stop-opacity:0.619608; stop-color:white"/>
  </linearGradient>
     <rect style="fill:url(#id7)" x="1183" y="615" width="104" height="128"/>
    </mask>
     <mask id="id8">
  <linearGradient id="id9" gradientUnits="userSpaceOnUse" x1="578.834" y1="715.065" x2="673.887" y2="715.065">
   <stop offset="0" style="stop-opacity:0; stop-color:white"/>
   <stop offset="1" style="stop-opacity:1; stop-color:white"/>
  </linearGradient>
      <rect style="fill:url(#id9)" x="578" y="635" width="95.9529" height="160.594"/>
     </mask>
     <mask id="id10">
  <linearGradient id="id11" gradientUnits="userSpaceOnUse" x1="423.257" y1="823.216" x2="527.253" y2="710.123">
   <stop offset="0" style="stop-opacity:0; stop-color:white"/>
   <stop offset="1" style="stop-opacity:1; stop-color:white"/>
  </linearGradient>
      <rect style="fill:url(#id11)" x="369" y="690" width="212" height="153"/>
     </mask>
     <mask id="id12">
  <linearGradient id="id13" gradientUnits="userSpaceOnUse" x1="1111.72" y1="656.303" x2="1213.92" y2="776.908">
   <stop offset="0" style="stop-opacity:0; stop-color:white"/>
   <stop offset="1" style="stop-opacity:1; stop-color:white"/>
  </linearGradient>
      <rect style="fill:url(#id13)" x="1107" y="640" width="112" height="153"/>
     </mask>
     <mask id="id14">
  <linearGradient id="id15" gradientUnits="userSpaceOnUse" x1="616.93" y1="658.809" x2="616.93" y2="831.659">
   <stop offset="0" style="stop-opacity:0; stop-color:white"/>
   <stop offset="1" style="stop-opacity:1; stop-color:white"/>
  </linearGradient>
      <rect style="fill:url(#id15)" x="364" y="659" width="505" height="173"/>
     </mask>
     <mask id="id16">
  <linearGradient id="id17" gradientUnits="userSpaceOnUse" x1="1168.48" y1="658.809" x2="1168.48" y2="831.659">
   <stop offset="0" style="stop-opacity:0; stop-color:white"/>
   <stop offset="1" style="stop-opacity:1; stop-color:white"/>
  </linearGradient>
      <rect style="fill:url(#id17)" x="916" y="659" width="505" height="173"/>
     </mask>
     <mask id="id18">
  <linearGradient id="id19" gradientUnits="userSpaceOnUse" x1="1092.9" y1="288.195" x2="1138.28" y2="325.513">
   <stop offset="0" style="stop-opacity:1; stop-color:white"/>
   <stop offset="1" style="stop-opacity:0; stop-color:white"/>
  </linearGradient>
      <rect style="fill:url(#id19)" x="1093" y="287" width="45.8457" height="40.6347"/>
     </mask>
     <mask id="id20">
  <linearGradient id="id21" gradientUnits="userSpaceOnUse" x1="1146" y1="535.183" x2="1139.86" y2="387.139">
   <stop offset="0" style="stop-opacity:1; stop-color:white"/>
   <stop offset="1" style="stop-opacity:0; stop-color:white"/>
  </linearGradient>
      <rect style="fill:url(#id21)" x="1095" y="387" width="95.1674" height="148.319"/>
     </mask>
      <mask id="id22">
  <linearGradient id="id23" gradientUnits="userSpaceOnUse" x1="729.73" y1="429.895" x2="865.949" y2="290.751">
   <stop offset="0" style="stop-opacity:1; stop-color:white"/>
   <stop offset="1" style="stop-opacity:0; stop-color:white"/>
  </linearGradient>
       <rect style="fill:url(#id23)" x="728" y="276" width="139" height="168"/>
      </mask>
      <mask id="id24">
  <linearGradient id="id25" gradientUnits="userSpaceOnUse" x1="687.056" y1="424.157" x2="937.845" y2="196.957">
   <stop offset="0" style="stop-opacity:1; stop-color:white"/>
   <stop offset="1" style="stop-opacity:0; stop-color:white"/>
  </linearGradient>
       <rect style="fill:url(#id25)" x="680" y="170" width="265" height="282"/>
      </mask>
     <mask id="id26">
  <linearGradient id="id27" gradientUnits="userSpaceOnUse" x1="938.202" y1="337.275" x2="1011.66" y2="313.648">
   <stop offset="0" style="stop-opacity:1; stop-color:white"/>
   <stop offset="1" style="stop-opacity:0; stop-color:white"/>
  </linearGradient>
      <rect style="fill:url(#id27)" x="938" y="303" width="72.9485" height="44.9871"/>
     </mask>
     <mask id="id28">
  <linearGradient id="id29" gradientUnits="userSpaceOnUse" x1="1053.71" y1="480.905" x2="963.56" y2="321.192">
   <stop offset="0" style="stop-opacity:1; stop-color:white"/>
   <stop offset="1" style="stop-opacity:0; stop-color:white"/>
  </linearGradient>
      <rect style="fill:url(#id29)" x="962" y="321" width="92.9033" height="159.566"/>
     </mask>
     <mask id="id30">
  <linearGradient id="id31" gradientUnits="userSpaceOnUse" x1="925" y1="451.668" x2="980.784" y2="361.604">
   <stop offset="0" style="stop-opacity:1; stop-color:white"/>
   <stop offset="1" style="stop-opacity:0; stop-color:white"/>
  </linearGradient>
      <rect style="fill:url(#id31)" x="913" y="355" width="79.7363" height="104.04"/>
     </mask>
     <mask id="id32">
  <linearGradient id="id33" gradientUnits="userSpaceOnUse" x1="933.885" y1="311.145" x2="963.845" y2="301.51">
   <stop offset="0" style="stop-opacity:1; stop-color:white"/>
   <stop offset="1" style="stop-opacity:0; stop-color:white"/>
  </linearGradient>
      <rect style="fill:url(#id33)" x="928" y="297" width="42.2812" height="19.0831"/>
     </mask>
     <mask id="id34">
  <linearGradient id="id35" gradientUnits="userSpaceOnUse" x1="1023.43" y1="297.663" x2="961.181" y2="359.095">
   <stop offset="0" style="stop-opacity:1; stop-color:white"/>
   <stop offset="1" style="stop-opacity:0; stop-color:white"/>
  </linearGradient>
      <rect style="fill:url(#id35)" x="961" y="297" width="63.1513" height="62.3328"/>
     </mask>
     <mask id="id36">
  <linearGradient id="id37" gradientUnits="userSpaceOnUse" x1="907.47" y1="201.657" x2="891.053" y2="322.045">
   <stop offset="0" style="stop-opacity:1; stop-color:white"/>
   <stop offset="1" style="stop-opacity:0; stop-color:white"/>
  </linearGradient>
      <rect style="fill:url(#id37)" x="834" y="180" width="130" height="164"/>
     </mask>
     <mask id="id38">
  <linearGradient id="id39" gradientUnits="userSpaceOnUse" x1="945.47" y1="180.408" x2="947.864" y2="192.794">
   <stop offset="0" style="stop-opacity:1; stop-color:white"/>
   <stop offset="1" style="stop-opacity:0; stop-color:white"/>
  </linearGradient>
      <rect style="fill:url(#id39)" x="925" y="161" width="42.3438" height="51.293"/>
     </mask>
      <mask id="id40">
  <linearGradient id="id41" gradientUnits="userSpaceOnUse" x1="643.071" y1="729.247" x2="683.559" y2="551.731">
   <stop offset="0" style="stop-opacity:1; stop-color:white"/>
   <stop offset="1" style="stop-opacity:0; stop-color:white"/>
  </linearGradient>
       <rect style="fill:url(#id41)" x="579" y="548" width="168" height="185"/>
      </mask>
      <mask id="id42">
  <linearGradient id="id43" gradientUnits="userSpaceOnUse" x1="678.273" y1="680.924" x2="676.565" y2="611.423">
   <stop offset="0" style="stop-opacity:1; stop-color:white"/>
   <stop offset="1" style="stop-opacity:0; stop-color:white"/>
  </linearGradient>
       <rect style="fill:url(#id43)" x="646" y="611" width="61.9229" height="70.3631"/>
      </mask>
  <linearGradient id="id44" gradientUnits="userSpaceOnUse" x1="404.443" y1="648.851" x2="404.443" y2="663.785">
   <stop offset="0" style="stop-opacity:1; stop-color:#D7FF95"/>
   <stop offset="1" style="stop-opacity:1; stop-color:#51FEB8"/>
  </linearGradient>
  <linearGradient id="id45" gradientUnits="userSpaceOnUse" x1="423.257" y1="823.216" x2="527.253" y2="710.123">
   <stop offset="0" style="stop-opacity:1; stop-color:black"/>
   <stop offset="1" style="stop-opacity:1; stop-color:black"/>
  </linearGradient>
  <linearGradient id="id46" gradientUnits="userSpaceOnUse" x1="709.726" y1="480.303" x2="1058.6" y2="488.444">
   <stop offset="0" style="stop-opacity:1; stop-color:#19D389"/>
   <stop offset="1" style="stop-opacity:1; stop-color:#0C5A56"/>
  </linearGradient>
  <linearGradient id="id47" gradientUnits="userSpaceOnUse" xlink:href="#id44" x1="458.73" y1="448.361" x2="1250" y2="448.361">
  </linearGradient>
  <linearGradient id="id48" gradientUnits="userSpaceOnUse" x1="954.827" y1="661.774" x2="926.467" y2="711.026">
   <stop offset="0" style="stop-opacity:1; stop-color:white"/>
   <stop offset="1" style="stop-opacity:1; stop-color:#B1B1B1"/>
  </linearGradient>
  <linearGradient id="id49" gradientUnits="userSpaceOnUse" xlink:href="#id46" x1="981.777" y1="704.27" x2="909.093" y2="596.403">
  </linearGradient>
  <linearGradient id="id50" gradientUnits="userSpaceOnUse" xlink:href="#id45" x1="945.687" y1="181.533" x2="947.646" y2="191.668">
  </linearGradient>
  <linearGradient id="id51" gradientUnits="userSpaceOnUse" xlink:href="#id45" x1="578.834" y1="715.065" x2="673.887" y2="715.065">
  </linearGradient>
  <linearGradient id="id52" gradientUnits="userSpaceOnUse" xlink:href="#id45" x1="1264.62" y1="651.537" x2="1204.17" y2="705.688">
  </linearGradient>
  <linearGradient id="id53" gradientUnits="userSpaceOnUse" xlink:href="#id44" x1="168.878" y1="652" x2="86.7828" y2="764.01">
  </linearGradient>
  <linearGradient id="id54" gradientUnits="userSpaceOnUse" xlink:href="#id48" x1="844.402" y1="619.815" x2="885.536" y2="619.815">
  </linearGradient>
  <linearGradient id="id55" gradientUnits="userSpaceOnUse" xlink:href="#id48" x1="806.035" y1="729.127" x2="842.248" y2="673.102">
  </linearGradient>
  <linearGradient id="id56" gradientUnits="userSpaceOnUse" xlink:href="#id45" x1="1111.72" y1="656.303" x2="1213.92" y2="776.908">
  </linearGradient>
  <linearGradient id="id57" gradientUnits="userSpaceOnUse" xlink:href="#id45" x1="731.243" y1="428.35" x2="864.436" y2="292.296">
  </linearGradient>
  <linearGradient id="id58" gradientUnits="userSpaceOnUse" xlink:href="#id45" x1="1092.9" y1="288.195" x2="1138.28" y2="325.513">
  </linearGradient>
  <linearGradient id="id59" gradientUnits="userSpaceOnUse" xlink:href="#id45" x1="907.228" y1="203.427" x2="891.295" y2="320.274">
  </linearGradient>
  <linearGradient id="id60" gradientUnits="userSpaceOnUse" xlink:href="#id48" x1="881.348" y1="593.737" x2="904.505" y2="637.657">
  </linearGradient>
  <linearGradient id="id61" gradientUnits="userSpaceOnUse" xlink:href="#id44" x1="802.546" y1="85.7434" x2="802.546" y2="102.233">
  </linearGradient>
  <linearGradient id="id62" gradientUnits="userSpaceOnUse" xlink:href="#id45" x1="678.256" y1="680.215" x2="676.581" y2="612.132">
  </linearGradient>
  <linearGradient id="id63" gradientUnits="userSpaceOnUse" xlink:href="#id48" x1="818.543" y1="696.125" x2="849.789" y2="647.785">
  </linearGradient>
  <linearGradient id="id64" gradientUnits="userSpaceOnUse" xlink:href="#id44" x1="897.565" y1="114.978" x2="897.565" y2="166.159">
  </linearGradient>
  <linearGradient id="id65" gradientUnits="userSpaceOnUse" xlink:href="#id45" x1="1053.71" y1="480.905" x2="963.56" y2="321.192">
  </linearGradient>
  <linearGradient id="id66" gradientUnits="userSpaceOnUse" xlink:href="#id45" x1="554.218" y1="604.319" x2="616.618" y2="745.855">
  </linearGradient>
  <linearGradient id="id67" gradientUnits="userSpaceOnUse" xlink:href="#id45" x1="475.09" y1="654.898" x2="555.105" y2="749.016">
  </linearGradient>
  <linearGradient id="id68" gradientUnits="userSpaceOnUse" xlink:href="#id44" x1="775.676" y1="158.201" x2="775.676" y2="189.936">
  </linearGradient>
  <linearGradient id="id69" gradientUnits="userSpaceOnUse" xlink:href="#id45" x1="616.93" y1="658.809" x2="616.93" y2="831.659">
  </linearGradient>
  <linearGradient id="id70" gradientUnits="userSpaceOnUse" xlink:href="#id48" x1="894.274" y1="616.209" x2="917.688" y2="660.616">
  </linearGradient>
  <linearGradient id="id71" gradientUnits="userSpaceOnUse" xlink:href="#id44" x1="194.764" y1="577.681" x2="179.777" y2="598.129">
  </linearGradient>
  <linearGradient id="id72" gradientUnits="userSpaceOnUse" xlink:href="#id48" x1="952.807" y1="717.798" x2="917.546" y2="716.485">
  </linearGradient>
  <linearGradient id="id73" gradientUnits="userSpaceOnUse" xlink:href="#id45" x1="1204.84" y1="588.151" x2="1121.23" y2="716.728">
  </linearGradient>
  <linearGradient id="id74" gradientUnits="userSpaceOnUse" xlink:href="#id44" x1="254.122" y1="634.032" x2="198.911" y2="709.363">
  </linearGradient>
  <linearGradient id="id75" gradientUnits="userSpaceOnUse" xlink:href="#id46" x1="976.175" y1="484.134" x2="926.104" y2="484.613">
  </linearGradient>
  <linearGradient id="id76" gradientUnits="userSpaceOnUse" xlink:href="#id45" x1="938.202" y1="337.275" x2="1011.66" y2="313.648">
  </linearGradient>
  <linearGradient id="id77" gradientUnits="userSpaceOnUse" xlink:href="#id45" x1="1145.49" y1="523.098" x2="1140.36" y2="399.224">
  </linearGradient>
  <linearGradient id="id78" gradientUnits="userSpaceOnUse" xlink:href="#id48" x1="911.14" y1="717.835" x2="879.105" y2="716.642">
  </linearGradient>
  <linearGradient id="id79" gradientUnits="userSpaceOnUse" xlink:href="#id48" x1="848.762" y1="730.925" x2="835.476" y2="707.27">
  </linearGradient>
  <linearGradient id="id80" gradientUnits="userSpaceOnUse" xlink:href="#id45" x1="646.927" y1="712.34" x2="679.703" y2="568.638">
  </linearGradient>
  <linearGradient id="id81" gradientUnits="userSpaceOnUse" xlink:href="#id45" x1="715.554" y1="398.339" x2="909.347" y2="222.775">
  </linearGradient>
  <linearGradient id="id82" gradientUnits="userSpaceOnUse" xlink:href="#id45" x1="1168.48" y1="658.809" x2="1168.48" y2="831.659">
  </linearGradient>
  <linearGradient id="id83" gradientUnits="userSpaceOnUse" xlink:href="#id44" x1="809.062" y1="287.516" x2="1039.66" y2="703.154">
  </linearGradient>
  <linearGradient id="id84" gradientUnits="userSpaceOnUse" xlink:href="#id45" x1="929.082" y1="445.079" x2="976.702" y2="368.194">
  </linearGradient>
  <linearGradient id="id85" gradientUnits="userSpaceOnUse" xlink:href="#id46" x1="884.93" y1="800.001" x2="884.93" y2="500.672">
  </linearGradient>
  <linearGradient id="id86" gradientUnits="userSpaceOnUse" xlink:href="#id45" x1="1023.43" y1="297.663" x2="961.181" y2="359.095">
  </linearGradient>
  <linearGradient id="id87" gradientUnits="userSpaceOnUse" xlink:href="#id45" x1="933.885" y1="311.145" x2="963.845" y2="301.51">
  </linearGradient>
 </defs>
 <g id="Layer_x0020_1">
  <metadata id="CorelCorpID_0Corel-Layer"/>
  <g id="_2896830965408">
   <path class="fil0" d="M1250 131c-23,-20 -59,-36 -115,-34 -105,2 -190,151 -361,225 -89,38 -457,99 -257,478l733 0 0 -669z"/>
  </g>
  <path class="fil1" d="M1250 191c-94,22 -179,154 -336,221 -81,35 -396,89 -296,388l632 0 0 -609z"/>
  <g id="_2896830964928">
   <path class="fil2" d="M868 141c0,16 14,29 30,29 16,0 29,-13 29,-29 0,-16 -13,-30 -29,-30 -16,0 -30,14 -30,30z"/>
  </g>
  <g id="_2896830965632">
   <path class="fil3" d="M758 174c0,10 8,18 18,18 10,0 18,-8 18,-18 0,-10 -8,-18 -18,-18 -10,0 -18,8 -18,18z"/>
  </g>
  <g id="_2896830964896">
   <path class="fil4" d="M793 94c0,5 4,9 10,9 5,0 9,-4 9,-9 0,-5 -4,-9 -9,-9 -6,0 -10,4 -10,9z"/>
  </g>
  <g id="_2896830962464">
   <path class="fil5" d="M396 656c0,5 4,9 8,9 5,0 9,-4 9,-9 0,-4 -4,-8 -9,-8 -4,0 -8,4 -8,8z"/>
  </g>
  <g id="_2896830961984">
   <path class="fil6" d="M656 723c-4,-5 -3,-13 3,-17 0,0 1,0 1,0 -3,-8 -6,-15 -9,-22l-32 -3 27 -7c-8,-14 -17,-26 -26,-37l-26 30 15 -42c-17,-17 -36,-32 -54,-42l-4 38c0,0 -1,-23 -1,-42 -6,-3 -12,-7 -17,-9l-4 9 -2 -12c-15,-8 -26,-11 -26,-11 0,10 1,19 2,28l10 6 -9 0c1,7 2,13 3,20 18,7 39,15 39,15l-37 -9c6,25 14,47 25,65l40 0 -33 12c8,13 16,24 25,33l12 -16 -6 23c8,7 16,14 23,20 4,0 8,2 10,6 1,1 2,2 2,3 33,24 61,32 61,32 3,-23 2,-45 -2,-65 -4,0 -8,-2 -10,-6z"/>
   <path class="fil7" style="mask:url(#id0)" d="M656 723c-4,-5 -3,-13 3,-17 0,0 1,0 1,0 -3,-8 -6,-15 -9,-22l-32 -3 27 -7c-8,-14 -17,-26 -26,-37l-26 30 15 -42c-17,-17 -36,-32 -54,-42l-4 38c0,0 -1,-23 -1,-42 -6,-3 -12,-7 -17,-9l-4 9 -2 -12c-15,-8 -26,-11 -26,-11 0,10 1,19 2,28l10 6 -9 0c1,7 2,13 3,20 18,7 39,15 39,15l-37 -9c6,25 14,47 25,65l40 0 -33 12c8,13 16,24 25,33l12 -16 -6 23c8,7 16,14 23,20 4,0 8,2 10,6 1,1 2,2 2,3 33,24 61,32 61,32 3,-23 2,-45 -2,-65 -4,0 -8,-2 -10,-6z"/>
  </g>
  <g id="_2896830963424">
   <path class="fil6" d="M572 720c-3,-3 -4,-8 -1,-12 0,0 0,0 0,-1 -3,-4 -6,-8 -10,-12l-22 4 17 -10c-8,-8 -16,-14 -25,-20l-11 26 2 -31c-16,-9 -31,-14 -45,-18l5 27c0,0 -5,-16 -9,-28 -5,-1 -10,-2 -14,-3l0 6 -4 -7c-12,-2 -19,-2 -19,-2 2,6 4,13 7,19l7 1 -6 2c2,4 4,9 6,13 13,1 29,2 29,2l-26 2c9,15 19,28 29,38l27 -8 -19 15c7,6 15,12 23,17l4 -14 1 17c7,4 13,7 20,9 2,-1 5,0 8,2 0,0 1,1 2,2 26,9 47,9 47,9 -3,-16 -8,-31 -15,-43 -2,0 -5,0 -8,-2z"/>
   <path class="fil8" style="mask:url(#id2)" d="M572 720c-3,-3 -4,-8 -1,-12 0,0 0,0 0,-1 -3,-4 -6,-8 -10,-12l-22 4 17 -10c-8,-8 -16,-14 -25,-20l-11 26 2 -31c-16,-9 -31,-14 -45,-18l5 27c0,0 -5,-16 -9,-28 -5,-1 -10,-2 -14,-3l0 6 -4 -7c-12,-2 -19,-2 -19,-2 2,6 4,13 7,19l7 1 -6 2c2,4 4,9 6,13 13,1 29,2 29,2l-26 2c9,15 19,28 29,38l27 -8 -19 15c7,6 15,12 23,17l4 -14 1 17c7,4 13,7 20,9 2,-1 5,0 8,2 0,0 1,1 2,2 26,9 47,9 47,9 -3,-16 -8,-31 -15,-43 -2,0 -5,0 -8,-2z"/>
  </g>
  <g id="_2896830959808">
   <path class="fil6" d="M1147 761c3,-6 10,-9 16,-7 1,1 1,1 1,1 5,-6 9,-13 13,-19l-14 -29 20 19c7,-14 13,-28 17,-42l-40 -5 44 -10c5,-25 6,-49 6,-69l-35 18c0,0 19,-14 35,-24 -1,-7 -1,-14 -2,-20l-9 2 9 -8c-2,-17 -5,-28 -5,-28 -8,6 -16,12 -23,18l1 11 -5 -8c-6,5 -10,9 -15,14 4,18 8,40 8,40l-13 -36c-17,19 -30,38 -40,57l22 34 -29 -21c-6,13 -10,26 -13,39l20 0 -22 8c-3,11 -4,21 -5,31 2,3 2,8 1,11 -1,2 -1,3 -2,4 -1,26 2,46 4,58l21 0c13,-8 25,-17 35,-27 -2,-4 -2,-8 -1,-12z"/>
   <path class="fil9" style="mask:url(#id4)" d="M1147 761c3,-6 10,-9 16,-7 1,1 1,1 1,1 5,-6 9,-13 13,-19l-14 -29 20 19c7,-14 13,-28 17,-42l-40 -5 44 -10c5,-25 6,-49 6,-69l-35 18c0,0 19,-14 35,-24 -1,-7 -1,-14 -2,-20l-9 2 9 -8c-2,-17 -5,-28 -5,-28 -8,6 -16,12 -23,18l1 11 -5 -8c-6,5 -10,9 -15,14 4,18 8,40 8,40l-13 -36c-17,19 -30,38 -40,57l22 34 -29 -21c-6,13 -10,26 -13,39l20 0 -22 8c-3,11 -4,21 -5,31 2,3 2,8 1,11 -1,2 -1,3 -2,4 -1,26 2,46 4,58l21 0c13,-8 25,-17 35,-27 -2,-4 -2,-8 -1,-12z"/>
  </g>
  <g id="_2896830960480">
   <path class="fil6" d="M1213 727c1,-3 5,-3 8,-1 0,0 0,0 0,0 3,-2 6,-4 8,-7l-3 -14 7 10c5,-5 9,-11 13,-17l-18 -7 21 1c0,0 1,-1 1,-2l0 -26 -7 2c0,0 3,-1 7,-3l0 -21 0 -1c-3,1 -6,2 -9,4 0,8 -1,19 -1,19l-1 -18c-10,7 -19,14 -25,21l5 18 -10 -13c-4,5 -8,10 -11,16l9 2 -11 1c-2,5 -4,9 -5,13 0,2 0,4 -1,6 -1,0 -1,1 -2,1 -5,18 -5,31 -5,31 11,-2 20,-5 29,-10 -1,-2 -1,-4 1,-5z"/>
   <path class="fil10" style="mask:url(#id6)" d="M1213 727c1,-3 5,-3 8,-1 0,0 0,0 0,0 3,-2 6,-4 8,-7l-3 -14 7 10c5,-5 9,-11 13,-17l-18 -7 21 1c0,0 1,-1 1,-2l0 -26 -7 2c0,0 3,-1 7,-3l0 -21 0 -1c-3,1 -6,2 -9,4 0,8 -1,19 -1,19l-1 -18c-10,7 -19,14 -25,21l5 18 -10 -13c-4,5 -8,10 -11,16l9 2 -11 1c-2,5 -4,9 -5,13 0,2 0,4 -1,6 -1,0 -1,1 -2,1 -5,18 -5,31 -5,31 11,-2 20,-5 29,-10 -1,-2 -1,-4 1,-5z"/>
  </g>
  <g id="_2862326636912">
   <g>
    <path class="fil11" d="M671 795c0,0 29,-107 -92,-160 0,0 14,129 92,160z"/>
    <path class="fil12" style="mask:url(#id8)" d="M671 795c0,0 29,-107 -92,-160 0,0 14,129 92,160z"/>
   </g>
   <g>
    <path class="fil11" d="M581 800c-2,-4 -72,-109 -212,-47 0,0 41,30 93,47l119 0z"/>
    <path class="fil13" style="mask:url(#id10)" d="M581 800c-2,-4 -72,-109 -212,-47 0,0 41,30 93,47l119 0z"/>
   </g>
   <g>
    <path class="fil11" d="M1131 793c0,0 87,-41 55,-153 0,0 -79,83 -55,153z"/>
    <path class="fil14" style="mask:url(#id12)" d="M1131 793c0,0 87,-41 55,-153 0,0 -79,83 -55,153z"/>
   </g>
   <path class="fil15" d="M373 800c-5,-14 111,-14 111,-14 0,0 -52,-19 -36,-26 16,-8 71,-3 71,-3 0,0 -51,-38 -35,-53 16,-14 74,24 74,24 0,0 -39,-43 -21,-51 18,-8 65,2 86,37 0,0 15,-44 27,-41 12,3 14,48 14,48 0,0 40,-20 49,-15 9,5 -3,33 -3,33 0,0 45,-8 57,1 12,10 -25,38 -25,38 0,0 127,0 127,20 0,1 0,1 -1,2l-495 0z"/>
   <path class="fil15" d="M925 800c-6,-14 111,-14 111,-14 0,0 -53,-19 -37,-26 17,-8 72,-3 72,-3 0,0 -51,-38 -35,-53 15,-14 73,24 73,24 0,0 -38,-43 -20,-51 17,-8 65,2 85,37 0,0 16,-44 28,-41 12,3 13,48 13,48 0,0 20,-10 35,-14l0 93 -325 0z"/>
   <g>
    <path class="fil16" style="mask:url(#id14)" d="M373 800c-5,-14 111,-14 111,-14 0,0 -52,-19 -36,-26 16,-8 71,-3 71,-3 0,0 -51,-38 -35,-53 16,-14 74,24 74,24 0,0 -39,-43 -21,-51 18,-8 65,2 86,37 0,0 15,-44 27,-41 12,3 14,48 14,48 0,0 40,-20 49,-15 9,5 -3,33 -3,33 0,0 45,-8 57,1 12,10 -25,38 -25,38 0,0 127,0 127,20 0,1 0,1 -1,2l-495 0z"/>
    <path class="fil17" style="mask:url(#id16)" d="M925 800c-6,-14 111,-14 111,-14 0,0 -53,-19 -37,-26 17,-8 72,-3 72,-3 0,0 -51,-38 -35,-53 15,-14 73,24 73,24 0,0 -38,-43 -20,-51 17,-8 65,2 85,37 0,0 16,-44 28,-41 12,3 13,48 13,48 0,0 20,-10 35,-14l0 93 -325 0z"/>
   </g>
  </g>
  <g id="_2862327364304">
   <g>
    <path class="fil18" d="M1164 633c0,0 4,12 2,14 -1,2 -26,3 -25,2 0,-6 14,-6 14,-6l-3 -6 12 -4z"/>
    <path class="fil18" d="M1139 633c0,0 3,13 2,14 -1,2 -26,4 -26,2 1,-6 15,-6 15,-6l-3 -6 12 -4z"/>
    <g>
     <path class="fil19" d="M1177 441c0,0 36,10 -7,198 0,0 -14,4 -21,1l-3 -130 -3 0 2 130c0,0 -11,3 -19,0 0,0 -25,-181 -22,-186 4,-5 73,-13 73,-13z"/>
    </g>
    <path class="fil20" d="M1164 260l-2 -13c0,-1 0,-3 0,-4 2,-4 6,-13 9,-12 4,0 -3,15 -3,15l7 13 -11 1z"/>
    <path class="fil20" d="M1051 297l-4 -12c-1,-2 -2,-3 -3,-4 -4,-2 -12,-7 -14,-5 -3,3 11,12 11,12l1 14 9 -5z"/>
    <path class="fil18" d="M1098 305c0,0 -11,-19 -1,-25 9,-5 41,16 37,30 -3,15 -13,16 -13,16l-23 -21z"/>
    <path class="fil21" style="mask:url(#id18)" d="M1119 287c-1,2 -3,5 -5,7 -5,3 -13,5 -19,3 1,5 3,8 3,8l23 21c0,0 10,-1 13,-16 2,-7 -6,-16 -15,-23z"/>
    <path class="fil20" d="M1104 325l5 24c0,0 12,4 27,-4l-11 -25 -21 5z"/>
    <path class="fil22" d="M1125 320l-21 5 4 18c7,-5 13,-15 17,-23z"/>
    <path class="fil20" d="M1110 291c-6,0 -12,5 -13,11 -2,11 -4,29 2,29 9,0 19,-4 23,-9 0,0 8,-1 9,-9 1,-9 -7,-3 -7,-3 0,0 -1,-18 -14,-19z"/>
    <path class="fil23" d="M1052 293c0,0 19,60 67,54 49,-6 42,-93 42,-93l13 -1c0,0 47,79 -5,118l19 76c0,0 -47,27 -89,13l-5 -75c0,0 -57,11 -55,-90l13 -2z"/>
    <g>
     <g>
      <path class="fil24" d="M1128 481c22,100 44,199 66,299l4 20 8 0 -61 -278c-3,-14 -7,-28 -10,-42 -1,-5 -8,-3 -7,1z"/>
     </g>
    </g>
    <g>
     <g>
      <path class="fil24" d="M1045 481c22,100 44,199 66,299l4 20 8 0 -61 -278c-4,-14 -7,-28 -10,-42 -1,-5 -8,-3 -7,1z"/>
     </g>
    </g>
    <g>
     <g>
      <path class="fil24" d="M1170 647c-28,0 -56,0 -84,0 -4,0 -4,7 0,7 28,0 56,0 84,0 4,0 4,-7 0,-7z"/>
     </g>
    </g>
    <g>
     <g>
      <path class="fil24" d="M1149 553c-27,0 -55,0 -83,0 -4,0 -4,8 0,8 28,0 56,0 83,0 5,0 5,-8 0,-8z"/>
     </g>
    </g>
    <g>
     <g>
      <path class="fil24" d="M1185 717c-28,0 -56,0 -84,0 -4,0 -4,8 0,8 28,0 56,0 84,0 4,0 4,-8 0,-8z"/>
     </g>
    </g>
    <path class="fil25" style="mask:url(#id20)" d="M1159 406c-20,6 -44,8 -63,0l3 54c42,14 89,-13 89,-13l-13 -51c-5,5 -10,8 -16,10z"/>
   </g>
   <g>
    <g>
     <polygon class="fil26" points="780,501 820,800 1068,800 1111,502 "/>
     <polygon class="fil27" points="719,501 760,800 1007,800 1051,502 "/>
     <path class="fil28" d="M791 503l320 0c10,0 19,-8 19,-19l0 0c0,-10 -9,-19 -19,-19l-320 0c-10,0 -19,9 -19,19l0 0c0,11 9,19 19,19z"/>
     <path class="fil29" d="M722 503l325 0c10,0 19,-8 19,-19l0 0c0,-10 -9,-19 -19,-19l-325 0c-11,0 -19,9 -19,19l0 0c0,11 8,19 19,19z"/>
    </g>
    <g>
     <g>
      <polygon class="fil30" points="886,610 862,647 844,637 871,593 "/>
      <polygon class="fil31" points="871,593 894,593 915,628 898,638 "/>
      <polygon class="fil32" points="928,619 884,647 922,658 "/>
     </g>
     <g>
      <polygon class="fil33" points="939,711 920,672 937,662 962,707 "/>
      <polygon class="fil34" points="962,707 950,727 909,727 909,707 "/>
      <polygon class="fil35" points="910,743 909,691 880,719 "/>
     </g>
     <g>
      <polygon class="fil36" points="824,708 868,711 868,731 816,729 "/>
      <polygon class="fil37" points="816,729 805,709 826,674 843,683 "/>
      <polygon class="fil38" points="811,666 857,691 848,652 "/>
     </g>
    </g>
   </g>
   <g>
    <polygon class="fil39" points="740,289 789,282 716,379 "/>
    <g>
     <path class="fil39" d="M789 282l-60 80 65 82 68 -78 -73 -84zm31 69l0 0 -27 -29c-2,-2 -2,-6 1,-8 2,-3 6,-2 8,0l27 29c2,2 2,6 -1,8 -2,3 -6,2 -8,0z"/>
     <path class="fil40" style="mask:url(#id22)" d="M789 282l-60 80 65 82 68 -78 -73 -84zm31 69l0 0 -27 -29c-2,-2 -2,-6 1,-8 2,-3 6,-2 8,0l27 29c2,2 2,6 -1,8 -2,3 -6,2 -8,0z"/>
    </g>
    <g>
     <path class="fil39" d="M740 289l-60 80 66 82 67 -78 -73 -84zm31 69l0 0 -26 -29c-2,-2 -2,-6 0,-8 3,-3 7,-2 9,0l26 29c3,2 2,6 0,8 -3,3 -6,3 -9,0z"/>
     <path class="fil41" style="mask:url(#id24)" d="M740 289l-60 80 66 82 67 -78 -73 -84zm31 69l0 0 -26 -29c-2,-2 -2,-6 0,-8 3,-3 7,-2 9,0l26 29c3,2 2,6 0,8 -3,3 -6,3 -9,0z"/>
    </g>
    <polygon class="fil39" points="813,373 862,366 794,444 746,451 "/>
   </g>
   <g>
    <polygon class="fil42" points="963,355 1011,324 1038,409 992,449 "/>
    <polygon class="fil42" points="970,303 1011,324 939,348 "/>
    <polygon class="fil43" style="mask:url(#id26)" points="970,303 1011,324 939,348 "/>
    <polygon class="fil42" points="913,364 930,315 970,303 963,355 "/>
    <polygon class="fil44" style="mask:url(#id28)" points="963,355 1011,324 1038,409 992,449 "/>
    <polygon class="fil42" points="963,355 913,364 944,458 992,449 "/>
    <polygon class="fil45" style="mask:url(#id30)" points="963,355 913,364 944,458 992,449 "/>
    <polygon class="fil42" points="1011,324 963,355 968,313 "/>
    <polygon class="fil42" points="970,303 930,315 928,310 968,297 "/>
    <polygon class="fil46" style="mask:url(#id32)" points="970,303 930,315 928,310 968,297 "/>
    <polygon class="fil47" style="mask:url(#id34)" points="1011,324 963,355 968,313 "/>
   </g>
   <g>
    <path class="fil48" d="M963 210c0,0 -17,15 -17,26 1,10 2,44 -47,79 0,0 -7,9 -8,19 -1,6 -6,9 -11,7 -5,-1 -12,-5 -22,-11 -15,-10 -20,-18 -22,-24 -1,-5 1,-9 5,-11 6,-2 14,-6 17,-16 6,-15 20,-47 60,-67 0,0 11,-2 14,-24l31 22z"/>
    <path class="fil49" style="mask:url(#id36)" d="M963 210c0,0 -17,15 -17,26 1,10 2,44 -47,79 0,0 -7,9 -8,19 -1,6 -6,9 -11,7 -5,-1 -12,-5 -22,-11 -15,-10 -20,-18 -22,-24 -1,-5 1,-9 5,-11 6,-2 14,-6 17,-16 6,-15 20,-47 60,-67 0,0 11,-2 14,-24l31 22z"/>
    <path class="fil50" d="M964 211l-33 -23c-1,-1 -1,-1 0,-2l0 -2c1,0 2,-1 3,0l32 24c1,0 1,1 1,2l-1 1c-1,1 -2,1 -2,0z"/>
    <path class="fil51" style="mask:url(#id38)" d="M964 211l-33 -23c-1,-1 -1,-1 0,-2l0 -2c1,0 2,-1 3,0l32 24c1,0 1,1 1,2l-1 1c-1,1 -2,1 -2,0z"/>
   </g>
   <g>
    <g>
     <g>
      <path class="fil19" d="M702 661l-21 0 -6 0 -22 0c-24,24 -10,95 2,139l21 0 -1 -90c2,0 3,0 5,0l0 90 21 0c12,-44 26,-115 1,-139z"/>
     </g>
     <path class="fil23" d="M644 547c0,0 -5,-6 -4,-8 2,-2 7,1 7,1 0,0 6,-41 39,-35 32,7 24,38 31,46 7,8 51,40 0,67 -50,28 -118,-5 -117,-17 1,-12 25,-5 22,-18 -4,-13 -18,-19 -7,-29 10,-10 29,-7 29,-7z"/>
     <path class="fil52" style="mask:url(#id40)" d="M678 582c-23,-4 -43,-15 -57,-32 -2,1 -4,2 -6,4 -11,10 3,16 7,29 3,13 -21,6 -22,18 -1,12 67,45 117,17 30,-16 27,-34 18,-47 -17,10 -37,14 -57,11z"/>
     <path class="fil20" d="M711 641c0,0 -35,-42 -23,-51 12,-10 29,33 29,33l45 -3c0,0 22,-5 24,-1 1,3 -9,13 -23,8 0,0 -44,21 -52,14z"/>
     <path class="fil20" d="M663 588l1 -32 21 14 1 18c0,0 -11,10 -23,0z"/>
     <path class="fil22" d="M686 582l-1 -12 -21 -14 0 9c1,4 4,8 7,11 3,4 9,7 15,6z"/>
     <path class="fil20" d="M658 548c0,0 1,5 3,4 3,0 2,-17 2,-17 0,0 4,-6 12,-7 0,0 -2,18 19,20 0,0 2,17 -5,23 -5,5 -20,5 -27,-12 0,0 -10,-2 -4,-11z"/>
     <path class="fil18" d="M645 602c0,0 9,-12 18,-14 10,-1 23,0 23,0 0,0 23,7 17,35 0,0 -6,14 0,21 5,7 1,23 -15,22 -13,-1 -28,-1 -35,-1 -1,0 -3,-1 -3,-3l-5 -60z"/>
     <path class="fil53" style="mask:url(#id42)" d="M703 621c-1,0 -2,1 -4,1 -17,7 -36,9 -52,3l3 37c0,2 2,3 3,3 7,0 22,0 35,1 16,1 20,-15 15,-22 -6,-7 0,-21 0,-21 0,-1 0,-2 0,-2z"/>
     <path class="fil20" d="M636 652c0,0 0,-55 15,-54 16,0 2,44 2,44l37 26c0,0 20,10 19,14 -1,4 -15,4 -23,-7 0,0 -47,-13 -50,-23z"/>
    </g>
   </g>
  </g>
  <path class="fil54" d="M-2 636c22,-16 77,-48 118,30 44,84 140,59 142,134l-260 0 0 -164z"/>
  <path class="fil55" d="M193 672c0,18 15,33 34,33 18,0 33,-15 33,-33 0,-19 -15,-34 -33,-34 -19,0 -34,15 -34,34z"/>
  <path class="fil56" d="M177 588c0,5 5,10 10,10 6,0 10,-5 10,-10 0,-6 -4,-10 -10,-10 -5,0 -10,4 -10,10z"/>
 </g>
</svg>
